<mxfile host="65bd71144e">
    <diagram id="qBkxGUsjn6Y3DR6olrCK" name="Page-1">
        <mxGraphModel dx="541" dy="555" grid="1" gridSize="10" guides="1" tooltips="1" connect="1" arrows="1" fold="1" page="1" pageScale="1" pageWidth="1654" pageHeight="2336" math="0" shadow="0">
            <root>
                <mxCell id="0"/>
                <mxCell id="1" parent="0"/>
                <mxCell id="2" style="edgeStyle=orthogonalEdgeStyle;rounded=0;orthogonalLoop=1;jettySize=auto;html=1;entryX=0;entryY=0.5;entryDx=0;entryDy=0;entryPerimeter=0;endArrow=none;endFill=0;strokeWidth=2;dashed=1;exitX=1;exitY=0.5;exitDx=0;exitDy=0;exitPerimeter=0;" edge="1" parent="1" source="4" target="6">
                    <mxGeometry relative="1" as="geometry">
                        <mxPoint x="660" y="245" as="sourcePoint"/>
                        <Array as="points">
                            <mxPoint x="630" y="175"/>
                            <mxPoint x="630" y="175"/>
                        </Array>
                    </mxGeometry>
                </mxCell>
                <mxCell id="32" style="edgeStyle=orthogonalEdgeStyle;rounded=0;orthogonalLoop=1;jettySize=auto;html=1;exitX=0.5;exitY=0.5;exitDx=0;exitDy=30;exitPerimeter=0;entryX=0.5;entryY=0;entryDx=0;entryDy=0;strokeWidth=2;endArrow=none;endFill=0;" edge="1" parent="1" source="4" target="9">
                    <mxGeometry relative="1" as="geometry"/>
                </mxCell>
                <mxCell id="4" value="&lt;font style=&quot;font-size: 12px&quot;&gt;Начало&lt;/font&gt;" style="html=1;dashed=0;whitespace=wrap;shape=mxgraph.dfd.start;strokeWidth=2;" vertex="1" parent="1">
                    <mxGeometry x="410" y="145" width="200" height="60" as="geometry"/>
                </mxCell>
                <mxCell id="5" style="edgeStyle=orthogonalEdgeStyle;rounded=0;orthogonalLoop=1;jettySize=auto;html=1;exitX=0.5;exitY=1;exitDx=0;exitDy=0;" edge="1" parent="1">
                    <mxGeometry relative="1" as="geometry">
                        <mxPoint x="450" y="265" as="sourcePoint"/>
                        <mxPoint x="450" y="265" as="targetPoint"/>
                    </mxGeometry>
                </mxCell>
                <mxCell id="6" value="&lt;div&gt;&lt;span style=&quot;white-space: pre&quot;&gt;&#9;&lt;/span&gt;find_min_way(int **matrix,&lt;/div&gt;&lt;div&gt;&lt;span style=&quot;white-space: pre&quot;&gt;&#9;&lt;/span&gt;int i, int j, int k)&lt;br&gt;&lt;/div&gt;&lt;div&gt;&lt;span&gt;&lt;br&gt;&lt;/span&gt;&lt;/div&gt;&lt;span style=&quot;white-space: pre&quot;&gt;&#9;&lt;/span&gt;Вход: матрица matrix,&lt;br&gt;&lt;span style=&quot;white-space: pre&quot;&gt;&#9;&lt;/span&gt;индексы i, j, k&lt;br&gt;&lt;span style=&quot;white-space: pre&quot;&gt;&#9;&lt;/span&gt;Выход: матрица matrix" style="strokeWidth=2;html=1;shape=mxgraph.flowchart.annotation_1;align=left;pointerEvents=1;" vertex="1" parent="1">
                    <mxGeometry x="690" y="120" width="50" height="110" as="geometry"/>
                </mxCell>
                <mxCell id="7" style="edgeStyle=orthogonalEdgeStyle;rounded=0;orthogonalLoop=1;jettySize=auto;html=1;exitX=0;exitY=0.5;exitDx=0;exitDy=0;entryX=0.5;entryY=0;entryDx=0;entryDy=0;endArrow=classic;endFill=1;strokeWidth=2;" edge="1" parent="1" source="9" target="15">
                    <mxGeometry relative="1" as="geometry"/>
                </mxCell>
                <mxCell id="8" style="edgeStyle=orthogonalEdgeStyle;rounded=0;orthogonalLoop=1;jettySize=auto;html=1;exitX=1;exitY=0.5;exitDx=0;exitDy=0;entryX=0.5;entryY=0;entryDx=0;entryDy=0;endArrow=classic;endFill=1;strokeWidth=2;" edge="1" parent="1" source="9" target="13">
                    <mxGeometry relative="1" as="geometry"/>
                </mxCell>
                <mxCell id="9" value="matrix[i][j] == -1" style="rhombus;whiteSpace=wrap;html=1;strokeWidth=2;" vertex="1" parent="1">
                    <mxGeometry x="410" y="250" width="200" height="70" as="geometry"/>
                </mxCell>
                <mxCell id="10" style="edgeStyle=orthogonalEdgeStyle;rounded=0;orthogonalLoop=1;jettySize=auto;html=1;endArrow=classic;endFill=1;strokeWidth=2;entryX=0.5;entryY=0;entryDx=0;entryDy=0;" edge="1" parent="1">
                    <mxGeometry relative="1" as="geometry">
                        <mxPoint x="520" y="440" as="sourcePoint"/>
                        <mxPoint x="520" y="480" as="targetPoint"/>
                    </mxGeometry>
                </mxCell>
                <mxCell id="13" value="&lt;font&gt;&lt;font style=&quot;font-size: 12px&quot;&gt;matrix[i][j] = &lt;br&gt;matrix[i][k] + matrix[k][j]&lt;/font&gt;&lt;br&gt;&lt;/font&gt;" style="rounded=0;whiteSpace=wrap;html=1;strokeWidth=2;" vertex="1" parent="1">
                    <mxGeometry x="570" y="330" width="200" height="70" as="geometry"/>
                </mxCell>
                <mxCell id="14" style="edgeStyle=orthogonalEdgeStyle;rounded=0;orthogonalLoop=1;jettySize=auto;html=1;exitX=0.5;exitY=1;exitDx=0;exitDy=0;entryX=0.5;entryY=1;entryDx=0;entryDy=0;endArrow=none;endFill=0;strokeWidth=2;" edge="1" parent="1" source="15" target="13">
                    <mxGeometry relative="1" as="geometry">
                        <Array as="points">
                            <mxPoint x="350" y="440"/>
                            <mxPoint x="670" y="440"/>
                        </Array>
                    </mxGeometry>
                </mxCell>
                <mxCell id="15" value="&lt;font&gt;matrix[i][j] =&amp;nbsp;min(matrix[i][j],&lt;br&gt;matrix[i][k] + matrix[k][j])&lt;br&gt;&lt;/font&gt;" style="rounded=0;whiteSpace=wrap;html=1;strokeWidth=2;" vertex="1" parent="1">
                    <mxGeometry x="250" y="330" width="200" height="70" as="geometry"/>
                </mxCell>
                <mxCell id="18" value="&lt;font style=&quot;font-size: 12px&quot;&gt;Конец&lt;/font&gt;" style="html=1;dashed=0;whitespace=wrap;shape=mxgraph.dfd.start;strokeWidth=2;" vertex="1" parent="1">
                    <mxGeometry x="420" y="580" width="200" height="60" as="geometry"/>
                </mxCell>
                <mxCell id="25" value="Да" style="text;html=1;align=center;verticalAlign=middle;resizable=0;points=[];autosize=1;strokeColor=none;" vertex="1" parent="1">
                    <mxGeometry x="640" y="260" width="30" height="20" as="geometry"/>
                </mxCell>
                <mxCell id="30" style="edgeStyle=orthogonalEdgeStyle;rounded=0;orthogonalLoop=1;jettySize=auto;html=1;exitX=0.5;exitY=1;exitDx=0;exitDy=0;entryX=0.5;entryY=0.5;entryDx=0;entryDy=-30;entryPerimeter=0;endArrow=none;endFill=0;strokeWidth=2;" edge="1" parent="1" source="31" target="18">
                    <mxGeometry relative="1" as="geometry"/>
                </mxCell>
                <mxCell id="31" value="&lt;font style=&quot;font-size: 12px&quot;&gt;Вернуть matrix&lt;br&gt;&lt;/font&gt;" style="rounded=0;whiteSpace=wrap;html=1;strokeWidth=2;" vertex="1" parent="1">
                    <mxGeometry x="420" y="480" width="200" height="70" as="geometry"/>
                </mxCell>
            </root>
        </mxGraphModel>
    </diagram>
</mxfile>